<svg width="42" height="42" viewBox="0 0 42 42" fill="none" xmlns="http://www.w3.org/2000/svg">
<path d="M0.460938 2.86178C0.460938 3.31983 0.603146 3.76763 0.869565 4.14848C1.13599 4.52933 1.51466 4.82617 1.9577 5.00146C2.40074 5.17674 2.88825 5.22259 3.35858 5.13323C3.8289 5.04387 4.26093 4.82331 4.60002 4.49942C4.93911 4.17554 5.17002 3.76288 5.26357 3.31364C5.35713 2.8644 5.30911 2.39868 5.1256 1.97551C4.94208 1.55233 4.63133 1.19065 4.2326 0.936178C3.83388 0.681703 3.3651 0.54589 2.88555 0.54589C2.56715 0.54589 2.25187 0.605802 1.9577 0.722188C1.66353 0.838573 1.39623 1.00917 1.17109 1.22422C0.945942 1.43927 0.767358 1.69453 0.64551 1.97551C0.523661 2.25649 0.460938 2.55765 0.460938 2.86178Z" fill="white" fill-opacity="0.5"/>
</svg>

