<svg width="41" height="41" viewBox="0 0 41 41" fill="none" xmlns="http://www.w3.org/2000/svg">
<path d="M0.399414 2.4454C0.399414 2.92478 0.541602 3.39335 0.808021 3.79194C1.07444 4.19053 1.45313 4.5012 1.89617 4.68465C2.33921 4.8681 2.8267 4.91608 3.29703 4.82256C3.76736 4.72904 4.19939 4.49829 4.53847 4.15932C4.87756 3.82034 5.10848 3.38847 5.20203 2.9183C5.29558 2.44813 5.24759 1.96073 5.06407 1.51784C4.88056 1.07495 4.56978 0.696511 4.17106 0.430182C3.77233 0.163854 3.30355 0.0217152 2.82401 0.0217152C2.18151 0.0234919 1.56584 0.279288 1.11152 0.733451C0.657199 1.18761 0.401191 1.80312 0.399414 2.4454Z" fill="#7E7E7E"/>
</svg>
