<svg width="18" height="18" viewBox="0 0 18 18" fill="none" xmlns="http://www.w3.org/2000/svg">
<path d="M0.307785 0.957109C0.308311 1.14578 0.364963 1.33006 0.470581 1.48668C0.576198 1.64329 0.726042 1.76523 0.901192 1.83707C1.07634 1.90891 1.26895 1.92747 1.45466 1.89034C1.64038 1.85321 1.81087 1.7621 1.94463 1.6285C2.07838 1.49491 2.16938 1.3248 2.20614 1.13972C2.2429 0.954634 2.22377 0.762852 2.15116 0.588593C2.07855 0.414335 1.95572 0.265419 1.79819 0.160654C1.64066 0.0558887 1.4555 -8.58307e-06 1.26609 -9.29832e-06C1.01169 0.000692606 0.767945 0.101823 0.588307 0.281249C0.408669 0.460674 0.307784 0.703715 0.307785 0.957109Z" fill="#7E7E7E"/>
</svg>
