<svg width="30" height="30" viewBox="0 0 30 30" fill="none" xmlns="http://www.w3.org/2000/svg">
<path d="M0.702271 2.25751C0.702271 2.57993 0.797982 2.8951 0.977318 3.16318C1.15665 3.43127 1.41157 3.64022 1.70979 3.76361C2.00802 3.887 2.33616 3.91927 2.65275 3.85637C2.96935 3.79347 3.26016 3.63826 3.48841 3.41027C3.71666 3.18229 3.8721 2.89181 3.93507 2.57558C3.99805 2.25935 3.96574 1.93152 3.84221 1.63364C3.71868 1.33576 3.50949 1.08122 3.24109 0.902094C2.97269 0.722964 2.65714 0.627252 2.33435 0.627252C2.12002 0.627252 1.9078 0.66948 1.70979 0.751406C1.51178 0.833332 1.33186 0.953363 1.18031 1.10474C1.02876 1.25612 0.908532 1.43586 0.826512 1.63364C0.744492 1.83143 0.702271 2.04343 0.702271 2.25751Z" fill="white" fill-opacity="0.5"/>
</svg>
