<svg width="30" height="30" viewBox="0 0 30 30" fill="none" xmlns="http://www.w3.org/2000/svg">
<path d="M2.25949 0C1.95572 0 1.65874 0.089971 1.40617 0.258536C1.15359 0.4271 0.956725 0.666688 0.840477 0.947C0.724229 1.22731 0.693824 1.53576 0.753087 1.83334C0.81235 2.13092 0.958624 2.40426 1.17342 2.6188C1.38822 2.83335 1.66189 2.97945 1.95983 3.03864C2.25776 3.09783 2.56662 3.06745 2.84726 2.95135C3.12791 2.83524 3.36777 2.63861 3.53654 2.38634C3.7053 2.13406 3.79537 1.83747 3.79537 1.53406C3.79537 1.1272 3.63354 0.737008 3.34551 0.449316C3.05747 0.161624 2.66684 0 2.25949 0Z" fill="#7E7E7E"/>
</svg>
