<svg width="24" height="24" viewBox="0 0 24 24" fill="none" xmlns="http://www.w3.org/2000/svg">
<path d="M15.75 11.7188C15.75 12.4604 15.5301 13.1855 15.118 13.8021C14.706 14.4188 14.1203 14.8995 13.4351 15.1833C12.7498 15.4671 11.9958 15.5414 11.2684 15.3967C10.541 15.252 9.8728 14.8948 9.34835 14.3704C8.8239 13.846 8.46675 13.1778 8.32205 12.4503C8.17736 11.7229 8.25162 10.9689 8.53545 10.2837C8.81928 9.59846 9.29993 9.01279 9.91661 8.60074C10.5333 8.18868 11.2583 7.96875 12 7.96875C12.9936 7.97184 13.9456 8.36792 14.6482 9.07051C15.3508 9.77311 15.7469 10.7251 15.75 11.7188ZM23.7188 6.5625V16.875C23.7188 18.6155 23.0273 20.2847 21.7966 21.5154C20.5659 22.7461 18.8967 23.4375 17.1562 23.4375H6.84375C5.10327 23.4375 3.43407 22.7461 2.20336 21.5154C0.972654 20.2847 0.28125 18.6155 0.28125 16.875V6.5625C0.28125 4.82202 0.972654 3.15282 2.20336 1.92211C3.43407 0.691404 5.10327 0 6.84375 0H17.1562C18.8967 0 20.5659 0.691404 21.7966 1.92211C23.0273 3.15282 23.7188 4.82202 23.7188 6.5625ZM17.625 11.7188C17.625 10.6062 17.2951 9.51869 16.677 8.59367C16.0589 7.66864 15.1804 6.94767 14.1526 6.52193C13.1248 6.09619 11.9938 5.98479 10.9026 6.20183C9.81147 6.41888 8.80919 6.9546 8.02252 7.74127C7.23585 8.52794 6.70013 9.53022 6.48308 10.6214C6.26604 11.7125 6.37744 12.8435 6.80318 13.8713C7.22892 14.8992 7.94989 15.7777 8.87492 16.3958C9.79994 17.0138 10.8875 17.3438 12 17.3438C13.4918 17.3438 14.9226 16.7511 15.9775 15.6962C17.0324 14.6413 17.625 13.2106 17.625 11.7188ZM19.5 5.625C19.5 5.34687 19.4175 5.07499 19.263 4.84373C19.1085 4.61247 18.8889 4.43223 18.6319 4.32579C18.3749 4.21936 18.0922 4.19151 17.8194 4.24577C17.5466 4.30003 17.296 4.43396 17.0994 4.63063C16.9027 4.8273 16.7688 5.07787 16.7145 5.35065C16.6603 5.62344 16.6881 5.90619 16.7945 6.16315C16.901 6.42011 17.0812 6.63973 17.3125 6.79425C17.5437 6.94878 17.8156 7.03125 18.0938 7.03125C18.4667 7.03125 18.8244 6.88309 19.0881 6.61937C19.3518 6.35565 19.5 5.99796 19.5 5.625Z" fill="white"/>
</svg>
