<svg width="26" height="20" viewBox="0 0 26 20" fill="none" xmlns="http://www.w3.org/2000/svg">
<path d="M3 20C2.3125 20 1.72375 19.755 1.23375 19.265C0.743752 18.775 0.499169 18.1867 0.500002 17.5V2.5C0.500002 1.8125 0.745002 1.22375 1.235 0.733752C1.725 0.243752 2.31334 -0.000831211 3 2.12224e-06H23C23.6875 2.12224e-06 24.2763 0.245002 24.7663 0.735002C25.2563 1.225 25.5008 1.81334 25.5 2.5V17.5C25.5 18.1875 25.255 18.7763 24.765 19.2663C24.275 19.7563 23.6867 20.0008 23 20H3ZM13 11.0313C13.1042 11.0313 13.2138 11.0154 13.3288 10.9838C13.4438 10.9521 13.5529 10.9054 13.6563 10.8438L22.5 5.3125C22.6667 5.20834 22.7917 5.07792 22.875 4.92125C22.9583 4.76459 23 4.59292 23 4.40625C23 3.98959 22.8229 3.67709 22.4688 3.46875C22.1146 3.26042 21.75 3.27084 21.375 3.5L13 8.75L4.625 3.5C4.25 3.27084 3.88542 3.26584 3.53125 3.485C3.17709 3.70417 3 4.01125 3 4.40625C3 4.61459 3.04167 4.79709 3.125 4.95375C3.20834 5.11042 3.33334 5.23 3.5 5.3125L12.3438 10.8438C12.4479 10.9063 12.5575 10.9533 12.6725 10.985C12.7875 11.0167 12.8967 11.0321 13 11.0313Z" fill="white"/>
</svg>
