<svg width="26" height="25" viewBox="0 0 26 25" fill="none" xmlns="http://www.w3.org/2000/svg">
<path fill-rule="evenodd" clip-rule="evenodd" d="M9.78625 8.71125H14.4287V11.0238C15.0975 9.69375 16.8125 8.49875 19.3888 8.49875C24.3275 8.49875 25.5 11.1463 25.5 16.0037V25H20.5V17.11C20.5 14.3438 19.8313 12.7838 18.1287 12.7838C15.7675 12.7838 14.7863 14.465 14.7863 17.1087V25H9.78625V8.71125ZM1.2125 24.7875H6.2125V8.49875H1.2125V24.7875ZM6.92875 3.1875C6.92894 3.60659 6.84582 4.02154 6.68423 4.40823C6.52265 4.79492 6.28581 5.14564 5.9875 5.44C5.383 6.04078 4.56476 6.37707 3.7125 6.375C2.86174 6.37443 2.04539 6.039 1.44 5.44125C1.14276 5.14589 0.906732 4.79478 0.74543 4.40804C0.584127 4.0213 0.500724 3.60653 0.5 3.1875C0.5 2.34125 0.8375 1.53125 1.44125 0.93375C2.04611 0.335198 2.8628 -0.000374013 3.71375 3.12831e-07C4.56625 3.12831e-07 5.38375 0.33625 5.9875 0.93375C6.59 1.53125 6.92875 2.34125 6.92875 3.1875Z" fill="white"/>
</svg>
