<svg width="20" height="26" viewBox="0 0 20 26" fill="none" xmlns="http://www.w3.org/2000/svg">
<path d="M10 13C10.6875 13 11.2762 12.755 11.7663 12.265C12.2563 11.775 12.5008 11.1867 12.5 10.5C12.5 9.8125 12.255 9.22375 11.765 8.73375C11.275 8.24375 10.6867 7.99917 10 8C9.3125 8 8.72375 8.245 8.23375 8.735C7.74375 9.225 7.49917 9.81333 7.5 10.5C7.5 11.1875 7.745 11.7762 8.235 12.2663C8.725 12.7563 9.31333 13.0008 10 13ZM10 25.5C6.64583 22.6458 4.14083 19.995 2.485 17.5475C0.829167 15.1 0.000833333 12.8342 0 10.75C0 7.625 1.00542 5.13542 3.01625 3.28125C5.02708 1.42708 7.355 0.5 10 0.5C12.6458 0.5 14.9742 1.42708 16.985 3.28125C18.9958 5.13542 20.0008 7.625 20 10.75C20 12.8333 19.1717 15.0992 17.515 17.5475C15.8583 19.9958 13.3533 22.6467 10 25.5Z" fill="white"/>
</svg>
