<svg width="65" height="83" viewBox="0 0 65 83" fill="none" xmlns="http://www.w3.org/2000/svg">
<path d="M37.5797 80.8964L37.6548 82.0808C37.6724 82.3565 37.8255 82.6061 38.0641 82.7482C38.1978 82.8275 38.3486 82.8679 38.4996 82.8679C38.619 82.8679 38.7384 82.843 38.8501 82.7924L44.9309 80.0475C45.2625 79.8979 45.4606 79.554 45.4222 79.1946C45.3839 78.835 45.1176 78.5403 44.7615 78.4626L38.4189 77.0825C38.1596 77.0277 37.8885 77.0936 37.6865 77.2655C37.4848 77.437 37.3763 77.6926 37.3929 77.9557L37.4732 79.2198C35.8191 79.3465 34.1402 79.4124 32.4482 79.4124C25.4174 79.4124 18.7894 78.3334 13.281 76.2922C12.3218 75.9366 11.3996 75.5515 10.5395 75.147C10.1155 74.9474 9.61238 75.1269 9.41195 75.5459C9.21152 75.9651 9.3918 76.4661 9.8141 76.6645C10.7174 77.0893 11.6847 77.4936 12.6885 77.8656C18.3847 79.9764 25.2175 81.0922 32.4484 81.0922C34.1758 81.0921 35.8901 81.0252 37.5797 80.8964Z" fill="white"/>
<path d="M1.69309 65.2934C1.69309 61.6676 4.76445 58.207 10.3395 55.5371L32.0127 68.429C32.0165 68.4313 32.0208 68.4319 32.0246 68.4342C32.07 68.4602 32.1189 68.4778 32.168 68.4949C32.1896 68.5025 32.2098 68.5143 32.2316 68.5201C32.2928 68.536 32.3561 68.5427 32.4197 68.5449C32.4289 68.5452 32.438 68.5486 32.447 68.5486L32.4477 68.5485L32.4483 68.5486C32.4576 68.5486 32.4668 68.5453 32.476 68.5449C32.5394 68.5428 32.6025 68.5361 32.6636 68.5202C32.6861 68.5142 32.7069 68.502 32.729 68.4943C32.7775 68.4772 32.8257 68.4601 32.8705 68.4343C32.8745 68.4321 32.8788 68.4315 32.8828 68.4291L35.4964 66.8745C35.8974 66.6359 36.0277 66.1199 35.7873 65.7222L35.7872 65.722C35.5467 65.324 35.0267 65.1954 34.6261 65.4336L32.4477 66.7295L5.99027 50.9913L32.4478 35.2534L58.905 50.9913L46.9088 58.1271C46.5077 58.3657 46.3774 58.8817 46.6179 59.2793L46.618 59.2795C46.8585 59.6772 47.3784 59.8065 47.7791 59.568L54.5559 55.537C60.1311 58.2069 63.2022 61.6676 63.2022 65.2934C63.2022 69.9814 58.0561 74.3687 49.4366 77.0299C48.9902 77.1677 48.7412 77.6385 48.8801 78.0814C48.9929 78.4409 49.3273 78.6719 49.6879 78.6719C49.7713 78.6719 49.8559 78.6595 49.9399 78.6335C59.3044 75.7426 64.8952 70.7557 64.8952 65.2934C64.8952 61.2209 61.8459 57.4233 56.2757 54.514L60.9865 51.7119C60.9917 51.7088 60.9955 51.7041 61.0005 51.7008C61.0562 51.6659 61.1084 51.6263 61.1543 51.5799C61.1611 51.5732 61.166 51.5652 61.1724 51.5582C61.2103 51.5174 61.2435 51.4731 61.2727 51.4255C61.2829 51.4088 61.2916 51.3918 61.3006 51.3744C61.3227 51.3318 61.3408 51.2876 61.3554 51.2411C61.361 51.2235 61.3674 51.2066 61.3718 51.1886C61.3875 51.125 61.3978 51.0595 61.3978 50.9913V17.5571C61.3978 17.4888 61.3875 17.4234 61.3718 17.3598C61.3674 17.342 61.361 17.3251 61.3556 17.3077C61.3409 17.2611 61.3227 17.2166 61.3004 17.1739C61.2915 17.1566 61.2829 17.1399 61.2728 17.1234C61.2434 17.0753 61.2098 17.0306 61.1715 16.9894C61.1654 16.9829 61.1608 16.9754 61.1545 16.969C61.1083 16.9223 61.0559 16.8824 60.9998 16.8475C60.9949 16.8445 60.9913 16.8399 60.9863 16.837L32.883 0.11966C32.6152 -0.0398866 32.2805 -0.0398866 32.0128 0.11966L3.90889 16.8368C3.9029 16.8404 3.89822 16.8453 3.89233 16.849C3.88126 16.856 3.87 16.8626 3.85923 16.87C3.84058 16.883 3.82353 16.8984 3.80588 16.9129C3.79003 16.9259 3.77377 16.938 3.75911 16.9519C3.75084 16.9598 3.74276 16.9678 3.73468 16.976C3.71962 16.9916 3.70646 17.009 3.6925 17.0259C3.67874 17.0423 3.66428 17.0581 3.65202 17.0755C3.64464 17.0859 3.63796 17.0968 3.63098 17.1077C3.62689 17.1139 3.6217 17.1187 3.61781 17.1251C3.61044 17.1374 3.60655 17.1504 3.59977 17.1629C3.59039 17.1805 3.58012 17.1972 3.57205 17.2154C3.56606 17.2284 3.56128 17.2419 3.55599 17.2553C3.54791 17.2762 3.54153 17.297 3.53525 17.3183C3.53006 17.3355 3.52428 17.3525 3.52019 17.3701C3.517 17.384 3.51471 17.398 3.51222 17.4121C3.50843 17.4338 3.50603 17.4554 3.50384 17.4772C3.50204 17.4971 3.50005 17.5166 3.49955 17.5365C3.49935 17.5434 3.49746 17.55 3.49746 17.557V50.9912C3.49746 51.0595 3.50783 51.1249 3.52338 51.1884C3.52777 51.2065 3.53425 51.2235 3.53983 51.2411C3.55449 51.2874 3.57254 51.3317 3.59468 51.3742C3.60366 51.3916 3.61233 51.4086 3.6226 51.4254C3.65182 51.473 3.68502 51.5172 3.72292 51.558C3.7294 51.565 3.73419 51.573 3.74097 51.5797C3.78694 51.6261 3.83909 51.6658 3.89473 51.7006C3.89991 51.7038 3.9036 51.7086 3.90879 51.7117L8.61969 54.5139C3.04933 57.4231 0 61.2208 0 65.2933C0 65.7571 0.378924 66.1331 0.846495 66.1331C1.31416 66.1332 1.69309 65.7572 1.69309 65.2934ZM5.19044 19.0398L6.52226 19.832C6.65867 19.9132 6.80874 19.9518 6.95682 19.9518C7.24421 19.9518 7.52491 19.8063 7.68366 19.5436L7.68375 19.5435C7.92407 19.1459 7.79374 18.6299 7.39278 18.3915L5.99017 17.5571L32.448 1.81913L58.9052 17.5571L32.4478 33.2948L21.1975 26.6031C21.1975 26.6031 21.1966 26.6024 21.1961 26.6021L20.461 26.1647C20.0597 25.9267 19.5398 26.055 19.2995 26.4531L19.2994 26.4532C19.0592 26.851 19.1894 27.3667 19.5902 27.6052L20.3253 28.0426C20.3256 28.0428 20.326 28.0429 20.326 28.0429L30.8018 34.2743L5.19044 49.5086V19.0398ZM59.7049 49.5086L34.0939 34.2742L59.7049 19.0398V49.5086Z" fill="white"/>
<path d="M2.14422 67.6753C1.9779 67.2414 1.48919 67.0241 1.05243 67.1878C0.615274 67.3525 0.395399 67.8374 0.561028 68.271C0.930776 69.2376 1.486 70.189 2.21133 71.0983C2.37836 71.3076 2.62566 71.4169 2.87565 71.4169C3.05952 71.4169 3.2446 71.3578 3.40035 71.2354C3.76681 70.9476 3.82894 70.4195 3.53866 70.0557C2.92122 69.2819 2.45205 68.4808 2.14422 67.6753Z" fill="white"/>
<path d="M7.93719 73.7569C7.06028 73.2236 6.25876 72.6583 5.55516 72.077C5.19568 71.7808 4.6623 71.8286 4.36275 72.1853C4.0638 72.5419 4.11276 73.0714 4.47194 73.3682C5.23836 74.0007 6.10639 74.6132 7.0523 75.1887C7.19021 75.2726 7.34298 75.3126 7.49405 75.3126C7.77874 75.3126 8.05645 75.1702 8.21619 74.9117C8.4606 74.5165 8.33556 73.9993 7.93719 73.7569Z" fill="white"/>
<path d="M17.8466 24.61L15.2331 23.0553C14.8327 22.8167 14.3125 22.9458 14.0718 23.3435V23.3436C13.8313 23.7413 13.9617 24.2573 14.3627 24.4958L16.9763 26.0505C17.1125 26.1317 17.2627 26.1702 17.4108 26.1702C17.6981 26.1702 17.9788 26.0247 18.1376 25.7622L18.1377 25.7621C18.3779 25.3643 18.2477 24.8485 17.8466 24.61Z" fill="white"/>
<path d="M12.6198 21.5008L10.0065 19.9461C9.60591 19.7071 9.08559 19.8365 8.84517 20.2344V20.2345C8.60485 20.6322 8.73498 21.1481 9.13614 21.3865L11.7497 22.9412C11.8859 23.0224 12.036 23.061 12.1842 23.061C12.4716 23.061 12.7522 22.9154 12.9109 22.6529C13.1512 22.2553 13.021 21.7393 12.6198 21.5008Z" fill="white"/>
<path d="M45.0798 59.2144L42.4662 60.7691C42.0651 61.0076 41.9349 61.5236 42.1752 61.9213L42.1753 61.9214C42.3339 62.1841 42.6143 62.3294 42.902 62.3294C43.0501 62.3294 43.2002 62.291 43.3364 62.21L45.95 60.6553C46.3511 60.4169 46.4814 59.9007 46.2411 59.5032L46.241 59.503C46.0004 59.1051 45.4804 58.9759 45.0798 59.2144Z" fill="white"/>
<path d="M39.8536 62.3242L37.2397 63.879C36.8386 64.1174 36.7083 64.6335 36.9487 65.0311L36.9488 65.0312C37.1076 65.294 37.3879 65.4392 37.6755 65.4392C37.8237 65.4392 37.9737 65.4008 38.1099 65.3199L40.7238 63.7652C41.1248 63.5267 41.2551 63.0106 41.0147 62.613L41.0145 62.6128C40.7741 62.2149 40.2542 62.0858 39.8536 62.3242Z" fill="white"/>
</svg>
