<svg width="262" height="36" viewBox="0 0 262 36" fill="none" xmlns="http://www.w3.org/2000/svg">
<g clip-path="url(#clip0_66_106)">
<path d="M0 20.5058L0.094143 35.5202H5.52754V20.5058H15.7555L18.1494 15.494H5.52754V5.48432H25.3715V0.479492H0V20.5058Z" fill="white"/>
<path d="M115.467 27.1441L90.9223 0.479492H86.2354V35.5202H91.7629V8.85563L116.307 35.5202H120.994V0.479492H115.467V27.1441Z" fill="white"/>
<path d="M134.854 5.48432H147.408V35.5202H152.842V5.48432H163.022L165.396 0.479492H134.854V5.48432Z" fill="white"/>
<path d="M193.934 0C184.284 0 176.229 8.08419 176.229 17.9965C176.229 28.6874 183.538 36 193.934 36C203.49 36 211.546 27.8185 211.546 17.9965C211.546 7.31261 204.33 0 193.934 0ZM193.934 30.8979C187.001 30.8979 181.83 25.1215 181.83 17.9965C181.83 10.8716 186.981 5.10214 193.934 5.10214C200.887 5.10214 205.924 10.8785 205.924 17.9965C205.924 25.1145 200.867 30.8979 193.934 30.8979Z" fill="white"/>
<path d="M258.348 0.479492L244.671 14.4374L231.087 0.479492H227.342V35.5202H232.775V9.72452L244.671 21.465L256.566 9.72452V35.5202H262V0.479492H258.348Z" fill="white"/>
<path d="M41.6585 21.8127L40.9591 21.7988L35.25 35.5204H40.4279L43.8843 26.8037H49.8489L52.1823 21.7988H41.6719L41.6585 21.8127Z" fill="white"/>
<path d="M50.75 0.479492C51.4897 2.85679 64.4949 35.5202 64.4949 35.5202H69.935L55.3159 0.479492H50.75Z" fill="white"/>
<path d="M0 20.5058L0.094143 35.5202H5.52754V20.5058H15.7555L18.1494 15.494H5.52754V5.48432H25.3715V0.479492H0V20.5058Z" fill="white"/>
<path d="M115.467 27.1441L90.9223 0.479492H86.2354V35.5202H91.7629V8.85563L116.307 35.5202H120.994V0.479492H115.467V27.1441Z" fill="white"/>
<path d="M134.854 5.48432H147.408V35.5202H152.842V5.48432H163.022L165.396 0.479492H134.854V5.48432Z" fill="white"/>
<path d="M41.6585 21.8127L40.9591 21.7988L35.25 35.5204H40.4279L43.8843 26.8037H49.8489L52.1823 21.7988H41.6719L41.6585 21.8127Z" fill="white"/>
<path d="M50.75 0.479492C51.4897 2.85679 64.4949 35.5202 64.4949 35.5202H69.935L55.3159 0.479492H50.75Z" fill="white"/>
</g>
<defs>
<clipPath id="clip0_66_106">
<rect width="262" height="36" fill="white"/>
</clipPath>
</defs>
</svg>
