<svg width="94" height="94" viewBox="0 0 94 94" fill="none" xmlns="http://www.w3.org/2000/svg">
<path d="M35.333 67.9999L67.9997 46.9999L35.333 25.9999V67.9999ZM46.9997 93.6666C40.5441 93.6666 34.4775 92.4408 28.7997 89.9893C23.1219 87.5408 18.183 84.2166 13.983 80.0166C9.78301 75.8166 6.45879 70.8777 4.01034 65.1999C1.55879 59.5221 0.333008 53.4555 0.333008 46.9999C0.333008 40.5444 1.55879 34.4777 4.01034 28.7999C6.45879 23.1221 9.78301 18.1833 13.983 13.9833C18.183 9.78325 23.1219 6.45747 28.7997 4.00592C34.4775 1.55747 40.5441 0.333252 46.9997 0.333252C53.4552 0.333252 59.5219 1.55747 65.1997 4.00592C70.8775 6.45747 75.8164 9.78325 80.0163 13.9833C84.2163 18.1833 87.5406 23.1221 89.989 28.7999C92.4406 34.4777 93.6664 40.5444 93.6664 46.9999C93.6664 53.4555 92.4406 59.5221 89.989 65.1999C87.5406 70.8777 84.2163 75.8166 80.0163 80.0166C75.8164 84.2166 70.8775 87.5408 65.1997 89.9893C59.5219 92.4408 53.4552 93.6666 46.9997 93.6666ZM46.9997 84.3333C57.4219 84.3333 66.2497 80.7166 73.483 73.4833C80.7163 66.2499 84.333 57.4221 84.333 46.9999C84.333 36.5777 80.7163 27.7499 73.483 20.5166C66.2497 13.2833 57.4219 9.66659 46.9997 9.66659C36.5775 9.66659 27.7497 13.2833 20.5163 20.5166C13.283 27.7499 9.66634 36.5777 9.66634 46.9999C9.66634 57.4221 13.283 66.2499 20.5163 73.4833C27.7497 80.7166 36.5775 84.3333 46.9997 84.3333Z" fill="white"/>
</svg>
